<svg width="53" height="53" viewBox="0 0 53 53" fill="none" xmlns="http://www.w3.org/2000/svg">
<path d="M26.5003 15.4584C24.3165 15.4584 22.1817 16.106 20.3659 17.3193C18.5501 18.5325 17.1349 20.257 16.2992 22.2746C15.4634 24.2922 15.2448 26.5123 15.6708 28.6542C16.0969 30.7961 17.1485 32.7635 18.6927 34.3077C20.2369 35.8519 22.2043 36.9035 24.3462 37.3296C26.4881 37.7556 28.7082 37.537 30.7258 36.7013C32.7434 35.8655 34.4679 34.4503 35.6811 32.6345C36.8944 30.8187 37.542 28.6839 37.542 26.5001C37.542 23.5717 36.3787 20.7632 34.308 18.6924C32.2373 16.6217 29.4288 15.4584 26.5003 15.4584ZM26.5003 33.1251C25.19 33.1251 23.9091 32.7365 22.8197 32.0086C21.7302 31.2806 20.8811 30.2459 20.3796 29.0354C19.8782 27.8248 19.747 26.4927 20.0026 25.2076C20.2583 23.9225 20.8892 22.742 21.8157 21.8155C22.7423 20.889 23.9227 20.258 25.2079 20.0024C26.493 19.7468 27.825 19.8779 29.0356 20.3794C30.2462 20.8808 31.2808 21.73 32.0088 22.8194C32.7368 23.9089 33.1253 25.1898 33.1253 26.5001C33.1253 28.2571 32.4273 29.9422 31.1849 31.1847C29.9425 32.4271 28.2574 33.1251 26.5003 33.1251ZM37.542 13.2501C37.1052 13.2501 36.6783 13.3796 36.3151 13.6223C35.952 13.8649 35.6689 14.2098 35.5018 14.6133C35.3346 15.0168 35.2909 15.4609 35.3761 15.8892C35.4613 16.3176 35.6716 16.7111 35.9805 17.0199C36.2893 17.3288 36.6828 17.5391 37.1112 17.6243C37.5395 17.7095 37.9836 17.6658 38.3871 17.4986C38.7906 17.3315 39.1355 17.0485 39.3782 16.6853C39.6208 16.3221 39.7503 15.8952 39.7503 15.4584C39.7503 14.8727 39.5177 14.311 39.1035 13.8969C38.6894 13.4827 38.1277 13.2501 37.542 13.2501ZM48.4512 18.1967C48.4146 16.3096 48.0561 14.4425 47.3912 12.6759C46.7746 11.0684 45.8268 9.60852 44.6093 8.39108C43.3919 7.17364 41.932 6.22585 40.3245 5.60925C38.5579 4.94432 36.6909 4.58583 34.8037 4.54925C32.6616 4.41675 31.9549 4.41675 26.5003 4.41675C21.0457 4.41675 20.3391 4.41675 18.197 4.54925C16.3098 4.58583 14.4427 4.94432 12.6762 5.60925C11.0686 6.22585 9.60877 7.17364 8.39133 8.39108C7.17388 9.60852 6.22609 11.0684 5.60949 12.6759C4.94456 14.4425 4.58608 16.3096 4.54949 18.1967C4.41699 20.3609 4.41699 21.0676 4.41699 26.5001C4.41699 31.9326 4.41699 32.6392 4.54949 34.8034C4.58608 36.6906 4.94456 38.5577 5.60949 40.3242C6.22609 41.9318 7.17388 43.3916 8.39133 44.6091C9.60877 45.8265 11.0686 46.7743 12.6762 47.3909C14.4427 48.0558 16.3098 48.4143 18.197 48.4509C20.4053 48.4509 21.0457 48.5834 26.5003 48.5834C31.9549 48.5834 32.6616 48.5834 34.8037 48.4509C36.6909 48.4143 38.5579 48.0558 40.3245 47.3909C41.932 46.7743 43.3919 45.8265 44.6093 44.6091C45.8268 43.3916 46.7746 41.9318 47.3912 40.3242C48.0561 38.5577 48.4146 36.6906 48.4512 34.8034C48.4512 32.5951 48.5837 31.9326 48.5837 26.5001C48.5837 21.0676 48.5837 20.3609 48.4512 18.1967ZM44.0345 34.6047C43.9958 36.0061 43.7349 37.3925 43.2616 38.7122C42.8702 39.7553 42.2517 40.6982 41.4507 41.4726C40.681 42.2739 39.7362 42.8861 38.6903 43.2613C37.3676 43.754 35.9719 44.0227 34.5607 44.0563C32.4849 44.0563 31.8445 44.1668 26.4782 44.1668C21.112 44.1668 20.4937 44.1668 18.4178 44.1668C17.009 44.1304 15.6149 43.8695 14.2882 43.3938C13.2452 43.0025 12.3022 42.3839 11.5278 41.583C10.7265 40.8132 10.1143 39.8684 9.73908 38.8226C9.24839 37.5069 8.97974 36.1188 8.94408 34.7151C8.94408 32.5068 8.94408 31.9547 8.94408 26.6105C8.94408 21.2663 8.94408 20.6259 8.94408 18.5059C8.98214 17.0952 9.25069 15.7003 9.73908 14.3763C10.1201 13.3398 10.7318 12.4035 11.5278 11.638C12.2976 10.8367 13.2424 10.2245 14.2882 9.84925C15.611 9.35656 17.0067 9.08788 18.4178 9.05425C20.4937 8.83342 21.1341 8.83342 26.5003 8.83342C31.8666 8.83342 32.507 8.83342 34.5828 8.83342C36.0009 8.86947 37.4034 9.13804 38.7345 9.62842C39.771 10.0095 40.7074 10.6211 41.4728 11.4172C42.2741 12.1869 42.8863 13.1317 43.2616 14.1776C43.8022 15.5215 44.1084 16.9481 44.167 18.3955C44.167 20.6038 44.2774 21.1559 44.2774 26.5001C44.2774 31.8442 44.167 32.4847 44.167 34.6047H44.0345Z" fill="url(#paint0_linear_160_116)"/>
<defs>
<linearGradient id="paint0_linear_160_116" x1="26.5003" y1="4.41675" x2="26.5003" y2="48.5834" gradientUnits="userSpaceOnUse">
<stop stop-color="#338BFF"/>
<stop offset="1" stop-color="#24AFB5"/>
</linearGradient>
</defs>
</svg>
