<svg width="53" height="53" viewBox="0 0 53 53" fill="none" xmlns="http://www.w3.org/2000/svg">
<path d="M38.6454 19.8729C36.6683 19.872 34.7219 20.361 32.98 21.2962C32.8211 20.8776 32.5385 20.5172 32.1699 20.263C31.8013 20.0087 31.364 19.8727 30.9162 19.8729H22.0829C21.7928 19.8727 21.5056 19.9297 21.2376 20.0406C20.9696 20.1516 20.7261 20.3142 20.521 20.5193C20.3159 20.7244 20.1532 20.9679 20.0423 21.2359C19.9314 21.5039 19.8744 21.7912 19.8745 22.0812V48.5812C19.8744 48.8713 19.9314 49.1585 20.0423 49.4265C20.1532 49.6945 20.3159 49.938 20.521 50.1431C20.7261 50.3482 20.9696 50.5109 21.2376 50.6218C21.5056 50.7327 21.7928 50.7897 22.0829 50.7895H30.9162C31.2063 50.7897 31.4935 50.7327 31.7615 50.6218C32.0295 50.5109 32.273 50.3482 32.4781 50.1431C32.6832 49.938 32.8459 49.6945 32.9568 49.4265C33.0677 49.1585 33.1247 48.8713 33.1245 48.5812V36.4354C33.1245 35.8497 33.3572 35.288 33.7713 34.8738C34.1855 34.4597 34.7472 34.227 35.3329 34.227C35.9186 34.227 36.4803 34.4597 36.8944 34.8738C37.3085 35.288 37.5412 35.8497 37.5412 36.4354V48.5812C37.541 48.8713 37.598 49.1585 37.709 49.4265C37.8199 49.6945 37.9825 49.938 38.1876 50.1431C38.3927 50.3482 38.6362 50.5109 38.9042 50.6218C39.1722 50.7327 39.4595 50.7897 39.7495 50.7895H48.5829C48.8729 50.7897 49.1602 50.7327 49.4282 50.6218C49.6962 50.5109 49.9397 50.3482 50.1448 50.1431C50.3499 49.938 50.5125 49.6945 50.6234 49.4265C50.7344 49.1585 50.7914 48.8713 50.7912 48.5812V32.0187C50.7872 28.7987 49.5063 25.7116 47.2294 23.4347C44.9524 21.1578 41.8654 19.8769 38.6454 19.8729ZM46.3745 46.3729H41.9579V36.4354C41.9579 34.6783 41.2599 32.9932 40.0175 31.7508C38.775 30.5084 37.0899 29.8104 35.3329 29.8104C33.5758 29.8104 31.8907 30.5084 30.6483 31.7508C29.4059 32.9932 28.7079 34.6783 28.7079 36.4354V46.3729H24.2912V24.2895H28.7079V25.8423C28.7081 26.2999 28.8505 26.7461 29.1152 27.1193C29.3799 27.4925 29.754 27.7743 30.1858 27.9258C30.6175 28.0773 31.0857 28.091 31.5256 27.965C31.9654 27.839 32.3554 27.5796 32.6415 27.2225C33.6325 25.9638 34.9919 25.046 36.5298 24.5973C38.0676 24.1486 39.7073 24.1913 41.2197 24.7195C42.7321 25.2477 44.0418 26.2351 44.966 27.5436C45.8901 28.8522 46.3826 30.4167 46.3745 32.0187V46.3729ZM15.4579 19.8729H6.62454C6.33449 19.8727 6.04725 19.9297 5.77925 20.0406C5.51125 20.1516 5.26774 20.3142 5.06264 20.5193C4.85755 20.7244 4.69489 20.9679 4.58397 21.2359C4.47305 21.5039 4.41604 21.7912 4.41621 22.0812V48.5812C4.41604 48.8713 4.47304 49.1585 4.58396 49.4265C4.69488 49.6945 4.85754 49.938 5.06264 50.1431C5.26773 50.3482 5.51124 50.5109 5.77925 50.6218C6.04725 50.7327 6.33449 50.7897 6.62454 50.7895H15.4579C15.7479 50.7897 16.0352 50.7327 16.3032 50.6218C16.5712 50.5109 16.8147 50.3482 17.0198 50.1431C17.2249 49.938 17.3875 49.6945 17.4984 49.4265C17.6094 49.1585 17.6664 48.8713 17.6662 48.5812V22.0812C17.6664 21.7912 17.6094 21.5039 17.4984 21.2359C17.3875 20.9679 17.2249 20.7244 17.0198 20.5193C16.8147 20.3142 16.5712 20.1516 16.3032 20.0406C16.0352 19.9297 15.7479 19.8727 15.4579 19.8729ZM13.2495 46.3729H8.83287V24.2895H13.2495V46.3729ZM11.0736 3.40533C10.1071 3.34748 9.13898 3.48682 8.22807 3.81486C7.31715 4.1429 6.48248 4.6528 5.77481 5.31354C5.06714 5.97428 4.50126 6.77206 4.11158 7.65836C3.72191 8.54467 3.51658 9.50097 3.50809 10.4691C3.49959 11.4373 3.68811 12.397 4.06218 13.29C4.43624 14.183 4.98804 14.9906 5.684 15.6637C6.37997 16.3367 7.20557 16.8612 8.11059 17.2052C9.01561 17.5491 9.98114 17.7054 10.9485 17.6645H11.011C11.98 17.7221 12.9506 17.5815 13.8634 17.2513C14.7762 16.921 15.6121 16.4082 16.3201 15.744C17.028 15.0798 17.593 14.2782 17.9807 13.3883C18.3684 12.4983 18.5705 11.5387 18.5748 10.568C18.579 9.59727 18.3853 8.63588 18.0054 7.74257C17.6256 6.84926 17.0676 6.04277 16.3655 5.3724C15.6635 4.70202 14.8321 4.18184 13.9222 3.84363C13.0123 3.50541 12.043 3.35628 11.0735 3.40533H11.0736ZM11.011 13.2479H10.9485C10.5666 13.2943 10.1792 13.2584 9.81225 13.1428C9.44533 13.0272 9.10737 12.8345 8.82104 12.5776C8.53471 12.3206 8.30662 12.0055 8.15207 11.6532C7.99752 11.3009 7.92009 10.9196 7.92496 10.535C7.92496 8.88732 9.16068 7.82198 11.0736 7.82198C11.4593 7.77055 11.8517 7.80239 12.2241 7.91536C12.5966 8.02832 12.9405 8.21979 13.2327 8.47687C13.5249 8.73394 13.7587 9.05065 13.9182 9.40567C14.0777 9.76068 14.1593 10.1458 14.1575 10.535C14.1575 12.1826 12.9217 13.2479 11.011 13.2479Z" fill="url(#paint0_linear_160_117)"/>
<defs>
<linearGradient id="paint0_linear_160_117" x1="27.1495" y1="3.39258" x2="27.1495" y2="50.7895" gradientUnits="userSpaceOnUse">
<stop stop-color="#338BFF"/>
<stop offset="1" stop-color="#24AFB5"/>
</linearGradient>
</defs>
</svg>
